HIERARCHY
ROOT Hips
{
	OFFSET 0.00000 0.00000 0.00000
	CHANNELS 6 Xposition Yposition Zposition Yrotation Zrotation Xrotation 
	JOINT Lumbar
	{
		OFFSET 0 0 0
		CHANNELS 3 Zrotation Xrotation Yrotation
		JOINT Neck
		{
			OFFSET 0.00 0.2701 0.00
			CHANNELS 3 Zrotation Xrotation Yrotation
			End Site
			{
				OFFSET 0.00 0.1379 0.00
			}
		}
		JOINT RightShoulder
		{
			OFFSET 0.0119 0.2289 0.1181
			CHANNELS 3 Zrotation Xrotation Yrotation
			JOINT RightElbow
			{
				OFFSET 0.00 -0.1475 0.00
				CHANNELS 2 Zrotation Yrotation
				JOINT RightWrist
				{
					OFFSET 0.00 -0.1605 0.00
					CHANNELS 2 Zrotation Xrotation
					End Site
					{
						OFFSET 0.0040 -0.1068 0.0006
					}
				}
			}
		}
		JOINT LeftShoulder
		{
			OFFSET 0.0119 0.2289 -0.1181
			CHANNELS 3 Zrotation Xrotation Yrotation
			JOINT LeftElbow
			{
				OFFSET 0.00 -0.1475 0.00
				CHANNELS 2 Zrotation Yrotation
				JOINT LeftWrist
				{
					OFFSET 0.00 -0.1605 0.00
					CHANNELS 2 Zrotation Xrotation
					End Site
					{
						OFFSET 0.0040 -0.1068 -0.0006
					}
				}
			}
		}
	}
	JOINT RightHip
	{
		OFFSET 0.0316 -0.0424 0.0458
		CHANNELS 3 Zrotation Xrotation Yrotation
		JOINT RightKnee
		{
			OFFSET 0.00 -0.2438 0.00
			CHANNELS 1 Zrotation
			JOINT RightAnkle
			{
				OFFSET 0.00 -0.2449 0.00
				CHANNELS 3 Zrotation Xrotation Yrotation
				End Site
				{
					OFFSET 0.1237 -0.0542 0.0051
				}
			}
		}
	}
	JOINT LeftHip
	{
		OFFSET 0.0316 -0.0424 -0.0458
		CHANNELS 3 Zrotation Xrotation Yrotation
		JOINT LeftKnee
		{
			OFFSET 0.00 -0.2438 0.00
			CHANNELS 1 Zrotation
			JOINT LeftAnkle
			{
				OFFSET 0.00 -0.2449 0.00
				CHANNELS 3 Zrotation Xrotation Yrotation
				End Site
				{
					OFFSET 0.1237 -0.0542 -0.0051
				}
			}
		}
	}
}
MOTION
Frames: 33
Frame Time: 0.02
-0.25162 -0.00653 -0.19137 -175.41387 -24.77697 -2.37081 34.3587 2.83887 -3.40053 -8.33895 -6.29276 -0.83078 -18.1837 -35.25793 13.98763 47.24714 80.0992 -4.09552 -1.25265 8.06926 60.32212 -22.14092 66.5308 -79.45428 -11.13039 1.79054 18.78801 5.03293 -8.08182 -11.58199 -8.14474 -4.34598 -3.01539 34.54442 12.56563 5.59362 -27.97164 -10.0452 4.41809 3.16182
-0.24891 -0.00646 -0.19475 -175.40227 -24.69744 -2.24724 34.24278 3.06805 -3.63491 -8.16804 -6.38289 -0.83078 -16.0772 -38.17551 14.07914 44.87116 79.93835 -4.29615 -1.17002 18.47288 62.82685 -29.66825 63.25587 -79.72145 -11.4849 2.20743 19.05167 5.22349 -8.24187 -11.70253 -8.13864 -4.32943 -3.00597 35.43927 12.83345 5.02708 -29.02878 -10.2976 4.38339 3.15459
-0.24632 -0.00626 -0.19788 -175.51624 -24.6976 -2.09034 34.21673 3.28359 -3.82043 -7.99397 -6.49843 -0.83078 -13.46255 -41.18221 14.33669 42.25753 79.78199 -4.49486 -1.05416 30.41989 64.80074 -38.78084 59.06518 -80.0714 -11.62869 2.76582 19.42973 5.32782 -8.45767 -11.8763 -8.1337 -4.29358 -2.98631 36.39747 13.02857 4.36541 -30.10838 -10.56802 4.35129 3.14927
-0.24373 -0.00612 -0.20108 -175.57817 -24.66253 -1.94526 34.15648 3.50351 -4.02733 -7.82058 -6.60399 -0.83078 -11.0232 -44.13305 14.53469 39.76937 79.62739 -4.68805 -0.956 41.50782 66.92018 -46.90492 55.24746 -80.36937 -11.78681 3.27332 19.74502 5.46312 -8.64727 -12.01356 -8.12875 -4.26581 -2.97057 37.29787 13.25111 3.77153 -31.13797 -10.8175 4.31772 3.14228
-0.24091 -0.00601 -0.20448 -175.61652 -24.62476 -1.81477 34.06876 3.73198 -4.23711 -7.6472 -6.70235 -0.83078 -8.83351 -47.17288 14.63478 37.20911 79.46286 -4.90432 -0.84947 53.30247 69.45619 -56.16994 51.58386 -80.72956 -12.27994 3.7195 20.10677 5.6344 -8.83942 -12.20038 -8.12216 -4.24128 -2.958 38.32886 13.5001 3.07385 -32.34495 -11.12052 4.28464 3.1382
-0.23861 -0.00579 -0.2074 -175.73442 -24.61058 -1.64674 34.05935 3.9396 -4.43035 -7.4747 -6.82156 -0.83078 -5.97839 -50.03084 15.01477 34.736 79.31524 -5.07311 -0.74853 63.97469 70.99788 -63.43763 47.40353 -80.97966 -12.03723 4.3208 20.39779 5.71083 -9.03708 -12.29759 -8.11921 -4.20564 -2.93666 39.09843 13.67555 2.56833 -33.18237 -11.31704 4.25176 3.12892
-0.23767 -0.0053 -0.20905 -176.04468 -24.6474 -1.3711 34.2449 4.08601 -4.5793 -7.30045 -6.99701 -0.83078 -1.65164 -52.46688 15.80656 32.64098 79.2443 -5.11738 -0.70842 71.17968 69.86975 -64.72388 41.88795 -80.9022 -9.70876 5.4166 20.47511 5.53312 -9.27217 -12.13402 -8.12401 -4.13988 -2.89003 39.14741 13.66713 2.63593 -33.01692 -11.20736 4.21473 3.10204
-0.23726 -0.00471 -0.2102 -176.4302 -24.70425 -1.06079 34.50614 4.2128 -4.71501 -7.12874 -7.19169 -0.83078 3.3662 -54.69479 16.92342 30.63174 79.18429 -5.11381 -0.66878 77.19146 67.7665 -63.95704 35.91286 -80.71317 -6.66764 6.64805 20.47569 5.26493 -9.50526 -11.87896 -8.1327 -4.06429 -2.83552 38.92742 13.58655 2.89722 -32.47411 -10.99126 4.17858 3.07037
-0.23664 -0.00418 -0.21156 -176.77966 -24.74807 -0.77412 34.73198 4.3532 -4.8639 -6.95923 -7.37467 -0.83078 8.23152 -56.95008 18.11599 28.527 79.098 -5.12832 -0.60391 83.74103 66.14313 -64.17993 30.23481 -80.57485 -4.02038 7.75168 20.50481 5.04674 -9.71582 -11.6662 -8.14087 -3.99586 -2.78691 38.81811 13.53769 3.05704 -32.08698 -10.82889 4.14485 3.04281
-0.23591 -0.00358 -0.213 -177.14214 -24.81057 -0.45325 34.96447 4.47417 -4.98165 -6.77449 -7.5715 -0.83078 12.45375 -59.49614 18.41637 26.63636 79.10056 -5.15663 -0.64124 90.37575 64.34805 -64.22157 24.1442 -80.43219 -1.06585 9.13418 20.5638 4.78871 -10.02538 -11.45172 -8.14389 -3.91541 -2.72823 38.75827 13.49093 3.26884 -31.76468 -10.64451 4.09956 3.00734
-0.23553 -0.0031 -0.21415 -177.49268 -24.83876 -0.19551 35.20083 4.6301 -5.16079 -6.62324 -7.74312 -0.83078 18.14648 -61.38132 20.59316 24.34349 78.92226 -5.14676 -0.46906 96.51485 62.68392 -64.12937 18.82566 -80.28009 1.40959 9.97276 20.54197 4.59251 -10.12985 -11.21899 -8.15849 -3.85788 -2.68869 38.5327 13.42355 3.42145 -31.22102 -10.48045 4.0782 2.98697
-0.23602 -0.00297 -0.21465 -177.80049 -24.75896 -0.12338 35.4208 4.89583 -5.52069 -6.55512 -7.84519 -0.83078 27.95508 -61.5276 28.32272 20.74605 78.22933 -5.02538 0.30289 101.69077 61.63771 -64.18681 15.67255 -80.04554 2.43613 9.22015 20.30538 4.59592 -9.64863 -10.95312 -8.20457 -3.86627 -2.70493 37.89738 13.31751 3.34767 -30.12762 -10.39886 4.12551 3.01124
-0.23686 -0.00297 -0.21487 -178.09141 -24.64496 -0.11554 35.64303 5.19578 -5.94121 -6.52261 -7.92002 -0.83078 39.17453 -61.00716 37.81832 16.77374 77.35773 -4.86937 1.27957 106.37878 60.75568 -64.16899 13.33166 -79.81688 2.94703 7.9255 19.99133 4.66371 -8.96464 -10.67276 -8.26207 -3.89809 -2.74056 37.10779 13.19357 3.21071 -28.83077 -10.34146 4.19638 3.05059
-0.23754 -0.0029 -0.21521 -178.38383 -24.55182 -0.07667 35.86961 5.47473 -6.32947 -6.47908 -8.00431 -0.83078 49.59921 -60.77069 46.24197 13.08843 76.57433 -4.74245 2.15103 111.20938 59.79023 -64.16679 10.67547 -79.64461 3.65972 6.91478 19.71912 4.69822 -8.3861 -10.40208 -8.31406 -3.91917 -2.76675 36.39991 13.07764 3.1138 -27.64626 -10.27239 4.25452 3.08183
-0.23821 -0.00286 -0.21558 -178.70519 -24.43744 -0.04453 36.07691 5.77649 -6.7387 -6.41239 -8.10241 -0.83078 60.69972 -60.61452 55.92136 8.91604 75.75597 -4.56248 3.08215 116.33851 58.82997 -64.17339 7.77571 -79.23415 4.52997 5.74917 19.4168 4.74709 -7.75093 -10.11503 -8.36763 -3.94042 -2.79538 35.6327 12.95919 2.97707 -26.36187 -10.20156 4.32102 3.11803
-0.23898 -0.00279 -0.21582 -178.96106 -24.35832 -0.01375 36.32298 6.03849 -7.11686 -6.40421 -8.16402 -0.83078 70.71489 -60.12645 63.26605 5.66493 74.9751 -4.47913 3.92731 120.73903 57.90766 -64.16917 5.58192 -79.30384 4.94635 4.77688 19.15915 4.78179 -7.18617 -9.86003 -8.42044 -3.96684 -2.82356 34.95719 12.84332 2.9041 -25.24563 -10.14269 4.37595 3.14776
-0.23996 -0.00262 -0.21576 -179.04129 -24.38978 0.02574 36.68298 6.18764 -7.41181 -6.53315 -8.13976 -0.83078 77.41127 -58.96343 64.92648 5.07747 74.28066 -4.72601 4.57683 123.30255 57.08127 -64.17072 5.14693 -80.86087 4.17937 4.46054 19.04941 4.76843 -6.85994 -9.69566 -8.46952 -4.00352 -2.84659 34.56267 12.73438 3.03618 -24.61491 -10.10104 4.39081 3.15397
-0.24102 -0.00242 -0.21557 -179.05551 -24.45681 0.06644 37.08011 6.29459 -7.67045 -6.72266 -8.07796 -0.83078 82.95659 -57.47652 63.9861 5.42477 73.64232 -5.06204 5.11818 125.1447 56.28664 -64.17086 5.39562 -82.8718 2.98045 4.35913 18.98656 4.73783 -6.61235 -9.5648 -8.51723 -4.04439 -2.86842 34.26868 12.63017 3.23108 -24.16739 -10.07279 4.39356 3.15347
-0.24203 -0.00224 -0.21544 -179.09904 -24.50434 0.10865 37.45501 6.41758 -7.93411 -6.89476 -8.02803 -0.83078 89.01282 -56.0866 63.4075 5.325 73.01694 -5.32052 5.64559 127.28704 55.46181 -64.17061 5.32798 -84.56766 2.01237 4.16501 18.89908 4.71102 -6.3327 -9.41996 -8.56476 -4.08221 -2.89025 33.93696 12.52682 3.38746 -23.65703 -10.04559 4.40353 3.15743
-0.24309 -0.00206 -0.21534 -179.14542 -24.56504 0.14027 37.85277 6.5554 -8.24748 -7.02546 -7.99958 -0.83078 95.17929 -54.88226 66.21178 5.30502 72.21918 -5.73106 6.43605 129.52999 54.7082 -64.17104 5.31078 -86.71983 0.88034 3.92945 18.82322 4.7032 -6.03152 -9.26919 -8.61595 -4.12547 -2.91491 33.56734 12.40893 3.58403 -23.05434 -9.98969 4.40743 3.1562
-0.24406 -0.00186 -0.21513 -179.16977 -24.60687 0.19467 38.21152 6.65136 -8.44901 -7.25624 -7.91717 -0.83078 100.81295 -53.2269 61.50692 5.34719 71.80085 -5.85036 6.66341 131.39648 53.81229 -64.17066 5.34205 -88.03325 -0.00544 3.84038 18.73488 4.65127 -5.79516 -9.13906 -8.65921 -4.15834 -2.9333 33.30099 12.32416 3.71236 -22.68864 -9.9956 4.42033 3.16367
-0.24477 -0.00156 -0.21466 -179.15468 -24.59131 0.31497 38.45552 6.64618 -8.34104 -7.74835 -7.70085 -0.83078 105.34391 -50.37795 35.196 5.32182 72.37341 -5.11257 5.24575 132.42096 52.51176 -64.17172 5.32318 -86.8913 -0.11094 4.08665 18.60516 4.47838 -5.73241 -9.05686 -8.67914 -4.15898 -2.9331 33.31039 12.31776 3.63953 -22.94639 -10.17648 4.4649 3.19957
-0.2454 -0.00124 -0.21409 -179.11874 -24.55547 0.45767 38.65896 6.59941 -8.12346 -8.33849 -7.43074 -0.83078 109.35395 -47.09588 1.71148 5.33065 73.33215 -4.08602 3.28418 133.09009 51.06684 -64.17018 5.32892 -84.89912 0.0492 4.47783 18.46117 4.26206 -5.7315 -8.99455 -8.69129 -4.14925 -2.92676 33.41842 12.34715 3.49594 -23.43413 -10.41761 4.51816 3.24389
-0.24607 -0.00093 -0.21356 -179.08905 -24.52628 0.58853 38.87911 6.56872 -7.96181 -8.88429 -7.18125 -0.83078 113.53956 -44.03203 -27.53641 5.33245 74.14663 -3.21038 1.64916 133.91074 49.68998 -64.17055 5.32985 -83.30927 0.09453 4.81746 18.32063 4.06747 -5.6931 -8.9237 -8.70824 -4.14593 -2.92424 33.47191 12.36771 3.38296 -23.80941 -10.62606 4.5647 3.2824
-0.24671 -0.00061 -0.21307 -179.07089 -24.50742 0.72719 39.10621 6.54834 -7.77234 -9.43323 -6.94579 -0.83078 117.94833 -40.86155 -61.08395 5.33033 74.84202 -2.24881 -0.3177 134.74811 48.3044 -64.17517 5.32681 -81.65043 0.10199 5.10764 18.19295 3.86372 -5.69331 -8.85174 -8.72031 -4.13608 -2.91758 33.569 12.35584 3.27751 -24.22721 -10.85727 4.62225 3.3289
-0.24739 -0.0003 -0.21246 -179.02431 -24.46396 0.85392 39.31074 6.49736 -7.61622 -9.99577 -6.66983 -0.83078 121.77818 -37.82039 -87.23645 5.33282 75.86269 -1.40392 -1.72979 135.4756 46.90178 -64.16102 5.33068 -79.94948 0.25402 5.52775 18.0364 3.66922 -5.63135 -8.78659 -8.74011 -4.13674 -2.91778 33.59842 12.42145 3.14019 -24.60524 -11.05532 4.65943 3.36105
-0.24817 -5e-05 -0.2116 -178.90737 -24.33829 0.95058 39.44515 6.37055 -7.57101 -10.59153 -6.28707 -0.83078 124.18349 -35.19543 -92.17893 5.33174 77.80661 -0.88612 -1.40233 135.99186 45.49141 -64.18189 5.32655 -78.13868 0.77019 6.31259 17.7867 3.50864 -5.3414 -8.73325 -8.78833 -4.17406 -2.94149 33.40751 12.67914 2.9192 -24.84619 -11.14571 4.63531 3.34966
-0.249 0.00018 -0.21063 -178.7623 -24.19176 1.03272 39.56112 6.21494 -7.56491 -11.19348 -5.86727 -0.83078 126.02079 -32.72611 -89.26975 5.33092 80.04283 -0.50626 -0.51116 136.4127 44.06818 -64.17215 5.32817 -76.34283 1.41967 7.21495 17.51099 3.35953 -4.99266 -8.68617 -8.84376 -4.22154 -2.97186 33.14611 13.01569 2.67041 -25.0328 -11.2007 4.59097 3.32388
-0.24984 0.00042 -0.20968 -178.62848 -24.06755 1.11626 39.6973 6.07367 -7.54623 -11.77961 -5.46975 -0.83078 128.09361 -30.21787 -89.26941 5.33053 82.06548 -0.10756 0.07353 136.8772 42.64779 -64.11451 5.33841 -74.67938 1.99031 8.03469 17.25852 3.20653 -4.69928 -8.63766 -8.89234 -4.26076 -2.99705 32.9229 13.32512 2.4429 -25.22447 -11.27285 4.55791 3.30596
-0.25056 0.00068 -0.20881 -178.50044 -23.88941 1.22325 39.78317 5.9254 -7.5014 -12.42476 -5.04671 -0.83078 130.24426 -27.55964 -92.17616 5.32969 84.43896 0.48097 0.85143 137.32675 41.23417 -64.30026 5.30568 -72.42912 2.6456 8.98082 16.95893 3.04578 -4.29299 -8.58449 -8.9552 -4.3142 -3.03068 32.67815 13.6003 2.17758 -25.50744 -11.34306 4.51643 3.28285
-0.25153 0.00088 -0.20776 -178.35386 -23.81771 1.27676 39.96869 5.78572 -7.52225 -12.94639 -4.66953 -0.83078 132.10329 -25.25688 -87.23095 5.32916 86.15049 0.64426 1.36801 137.79057 39.80643 -63.99373 5.35947 -71.37779 3.15457 9.69234 16.74952 2.90529 -4.09979 -8.54149 -8.9908 -4.34157 -3.04893 32.45901 13.96346 1.9839 -25.58396 -11.40751 4.48743 3.26692
-0.25316 0.00089 -0.20628 -178.16457 -24.05555 1.19376 40.44522 5.6744 -7.71088 -13.13128 -4.42134 -0.83078 133.31195 -23.89864 -61.08334 5.32897 85.9225 -0.39213 1.02789 138.30965 38.33451 -62.14356 5.68415 -73.97388 3.20993 9.70323 16.81307 2.81052 -4.57393 -8.53196 -8.94365 -4.28565 -3.01827 32.33847 14.56316 2.00704 -25.10652 -11.46976 4.49911 3.27509
-0.25504 0.00083 -0.20461 -177.95769 -24.39957 1.05602 41.02089 5.57339 -7.96524 -13.19007 -4.22203 -0.83078 134.24591 -22.89578 -27.5301 5.32889 85.02378 -1.84245 0.4085 138.84902 36.8517 -59.83211 6.08976 -77.7249 3.11431 9.47755 16.9655 2.73691 -5.25375 -8.53135 -8.86982 -4.20462 -2.9727 32.24407 15.24552 2.10109 -24.42229 -11.52625 4.52378 3.29081
